<svg xmlns="http://www.w3.org/2000/svg" viewBox="0 0 36 20" fill="currentColor"><path d="M7.562 1.636C9.182.172 10.982-.4 12.89.242c2.45.826 4.2 3.53 5.39 6.244 1.19-2.714 2.94-5.418 5.39-6.244C25.578-.4 27.378.172 28.998 1.636c2.426 2.19 3.562 5.97 3.562 8.954 0 5.134-2.834 9.41-7.17 9.41-1.996 0-3.73-1.022-5.11-2.662-1.38 1.64-3.114 2.662-5.11 2.662C10.834 20 8 15.724 8 10.59 8 7.606 9.136 3.826 11.562 1.636zM3.56 1.636C5.18.172 6.98-.4 8.888.242c2.45.826 4.2 3.53 5.39 6.244.24.55.46 1.11.66 1.66l-.66 1.39c-.72-1.88-1.56-3.66-2.62-5.07C10.588 3.006 9.478 2.24 8.26 2.24c-1.126 0-2.234.862-3.06 2.46C4.13 6.564 3.56 8.87 3.56 10.59c0 4.41 2.04 6.17 3.61 6.17.97 0 2.02-.76 3.1-2.29.63-.89 1.2-1.92 1.73-3.01l.87 1.48c-.6 1.14-1.26 2.22-2 3.12C9.49 17.978 7.746 19 5.75 19 2.4 19 0 15.094 0 10.59 0 7.606 1.136 3.826 3.56 1.636z"/></svg>
